<?xml version="1.0" standalone="no"?><!DOCTYPE svg PUBLIC "-//W3C//DTD SVG 1.1//EN" "http://www.w3.org/Graphics/SVG/1.1/DTD/svg11.dtd"><svg t="1645364840331" class="icon" viewBox="0 0 1024 1024" version="1.1" xmlns="http://www.w3.org/2000/svg" p-id="16232" xmlns:xlink="http://www.w3.org/1999/xlink" width="200" height="200"><defs><style type="text/css"></style></defs><path d="M951.6 703.5c-13.8 0-20.7-9.8-25.7-16.9-5.1-7.2-7.7-10.2-12.7-10.2s-7.5 2.9-12.7 10.2c-5.1 7.1-12 16.9-25.7 16.9-13.8 0-20.7-9.8-25.7-16.9-5.1-7.2-7.7-10.2-12.7-10.2s-7.5 2.9-12.7 10.2c-5.1 7.1-12 16.9-25.7 16.9s-20.7-9.8-25.7-16.9c-5.1-7.2-7.7-10.2-12.7-10.2-4.4 0-8-3.6-8-7.9s3.6-7.9 8-7.9c13.8 0 20.7 9.8 25.7 16.9 5.1 7.2 7.7 10.2 12.7 10.2s7.5-2.9 12.7-10.2c5.1-7.1 12-16.9 25.7-16.9s20.7 9.8 25.7 16.9c5.1 7.2 7.7 10.2 12.7 10.2 5 0 7.5-2.9 12.7-10.2 5.1-7.1 12-16.9 25.7-16.9s20.7 9.8 25.7 16.9c5.1 7.2 7.7 10.2 12.7 10.2 4.4 0 8 3.6 8 7.9s-3.6 7.9-8 7.9zM951.6 653.5c-13.8 0-20.7-9.8-25.7-16.9-5.1-7.2-7.7-10.2-12.7-10.2s-7.5 2.9-12.7 10.2c-5.1 7.1-12 16.9-25.7 16.9-13.8 0-20.7-9.8-25.7-16.9-5.1-7.2-7.7-10.2-12.7-10.2s-7.5 2.9-12.7 10.2c-5.1 7.1-12 16.9-25.7 16.9s-20.7-9.8-25.7-16.9c-5.1-7.2-7.7-10.2-12.7-10.2-4.4 0-8-3.6-8-7.9s3.6-7.9 8-7.9c13.8 0 20.7 9.8 25.7 16.9 5.1 7.2 7.7 10.2 12.7 10.2s7.5-2.9 12.7-10.2c5.1-7.1 12-16.9 25.7-16.9s20.7 9.8 25.7 16.9c5.1 7.2 7.7 10.2 12.7 10.2 5 0 7.5-2.9 12.7-10.2 5.1-7.1 12-16.9 25.7-16.9s20.7 9.8 25.7 16.9c5.1 7.2 7.7 10.2 12.7 10.2 4.4 0 8 3.6 8 7.9s-3.6 7.9-8 7.9z" fill="#9A2D2F" p-id="16233"></path><path d="M342.6 104m-32 0a32 32 0 1 0 64 0 32 32 0 1 0-64 0Z" fill="#FFEB4D" p-id="16234"></path><path d="M342.6 144c-22.1 0-40-17.9-40-40s17.9-40 40-40 40 17.9 40 40-17.9 40-40 40z m0-64c-13.2 0-24 10.8-24 24s10.8 24 24 24 24-10.8 24-24-10.8-24-24-24z" fill="#9A2D2F" p-id="16235"></path><path d="M915.6 336c0 141.4-114.6 256-256 256s-256-114.6-256-256c0-76.2 33.3-144.6 86.1-191.5C534.9 104.4 594.4 80 659.6 80c141.4 0 256 114.6 256 256z" fill="#FFEB4D" p-id="16236"></path><path d="M433.6 403.1c96-40.7 35-139.9 68-191.6 31.1-48.7 106.3-27.7 132-31.8s73.2-31.2 73-79.7c0-6-0.5-11.3-1.2-15.9-14.8-2.7-30.1-4.1-45.8-4.1-65.2 0-124.7 24.4-169.9 64.5-52.8 46.9-86.1 115.3-86.1 191.5 0 15.4 1.4 30.4 4 45.1 7.4 17.3 16 26.3 26 22z" fill="#FFFFFF" p-id="16237"></path><path d="M549.6 446c0 123.7-100.3 224-224 224s-224-100.3-224-224c0-66.6 29-126.4 75.2-167.4 39.6-35.2 91.7-56.6 148.8-56.6 123.7 0 224 100.3 224 224z" fill="#C0FCD0" p-id="16238"></path><path d="M925.6 943h-259V607.9c34.2-0.9 67.5-8 98.9-21.3 32.4-13.7 61.5-33.3 86.5-58.3s44.6-54.1 58.3-86.5c14.2-33.5 21.4-69.2 21.4-105.9s-7.2-72.3-21.4-105.9c-13.7-32.4-33.3-61.5-58.3-86.5s-54.1-44.6-86.5-58.3C732 71.2 696.3 64 659.6 64c-66.6 0-130.7 24.3-180.5 68.5-28.4 25.2-50.8 55.4-66.6 89.7-27.7-10.8-56.9-16.2-86.9-16.2-23.1 0-45.9 3.3-67.6 9.7-2.1-1.6-4.2-4.3-7-8.3-5.1-7.1-12-16.9-25.7-16.9-13.8 0-20.7 9.8-25.7 16.9-5.1 7.2-7.7 10.2-12.7 10.2-5 0-7.5-2.9-12.7-10.2-5.1-7.1-12-16.9-25.7-16.9-13.8 0-20.7 9.8-25.7 16.9-5.1 7.2-7.7 10.2-12.7 10.2-5 0-7.5-2.9-12.7-10.2-5.1-7.1-12-16.9-25.7-16.9-4.4 0-8 3.6-8 7.9s3.6 7.9 8 7.9c5 0 7.5 2.9 12.7 10.2 5.1 7.1 12 16.9 25.7 16.9 13.8 0 20.7-9.8 25.7-16.9 5.1-7.2 7.7-10.2 12.7-10.2 5 0 7.5 2.9 12.7 10.2 5.1 7.1 12 16.9 25.7 16.9 13.8 0 20.7-9.8 25.7-16.9 5.1-7.2 7.7-10.2 12.7-10.2s7.5 2.9 12.7 10.2c1.1 1.5 2.2 3.1 3.5 4.7-23.7 8.9-46.1 21.6-66.1 37.7-0.4-0.5-0.7-1-1.1-1.5-5.1-7.1-12-16.9-25.7-16.9-13.8 0-20.7 9.8-25.7 16.9-5.1 7.2-7.7 10.2-12.7 10.2-5 0-7.5-2.9-12.7-10.2-5.1-7.1-12-16.9-25.7-16.9-4.4 0-8 3.6-8 7.9s3.6 7.9 8 7.9c5 0 7.5 2.9 12.7 10.2 5.1 7.1 12 16.9 25.7 16.9 13.8 0 20.7-9.8 25.7-16.9 5.1-7.2 7.7-10.2 12.7-10.2 5 0 7.5 2.9 12.7 10.2 0.6 0.9 1.3 1.9 2 2.8-23.6 21.7-42.4 47.5-55.7 76.6-14.4 31.5-21.7 65.1-21.7 99.9 0 32.4 6.3 63.8 18.9 93.4 12.1 28.6 29.4 54.2 51.4 76.3 22 22 47.7 39.3 76.3 51.4 27.2 11.5 55.9 17.8 85.4 18.7V943h-216c-4.4 0-8 3.6-8 8s3.6 8 8 8h824c4.4 0 8-3.6 8-8s-3.9-8-8.3-8zM489.8 144.5C534.9 104.4 594.4 80 659.6 80c141.4 0 256 114.6 256 256 0 139-110.9 252.2-249 255.9V408.3l95.7-95.7-11.3-11.3-84.3 84.3V334h-16v106.7l-66.3-66.3-11.4 11.3 77.7 77.7v128.5c-41.2-1.4-80-12.6-114-31.3 3.7-6.8 7.1-13.9 10.2-21.1 12.5-29.6 18.9-61 18.9-93.4 0-32.4-6.3-63.8-18.9-93.4-12.1-28.6-29.4-54.2-51.4-76.3-19.9-19.9-42.8-35.9-68.1-47.8 14.7-32.3 36.1-60.9 62.4-84.1zM101.6 446c0-65.6 28.2-124.6 73.1-165.5 3.3 1.8 7.3 3 12.1 3 13.8 0 20.7-9.8 25.7-16.9 5.1-7.2 7.7-10.2 12.7-10.2s7.5 2.9 12.7 10.2c5.1 7.1 12 16.9 25.7 16.9 4.4 0 8-3.6 8-7.9s-3.6-7.9-8-7.9c-5 0-7.5-2.9-12.7-10.2-3.9-5.6-9-12.7-17.5-15.6 7.7-3.5 15.6-6.5 23.7-9.1 2 0.5 4.2 0.8 6.5 0.8 3.3 0 6.1-2 7.3-4.8 17.5-4.4 35.8-6.7 54.7-6.7 28.4 0 55.6 5.3 80.6 15 5 1.9 9.9 4 14.7 6.3 76 35.8 128.7 113.1 128.7 202.7 0 38.5-9.7 74.7-26.8 106.4-2.5 4.7-5.3 9.3-8.1 13.8-38.4 60.3-104.9 101-181 103.6V555.3l87.8-87.8 7.8-7.8-11.3-11.4-4.2 4.2-80.2 80.2V482h-16v106.7l-66.3-66.3-11.3 11.3 77.7 77.7v58.5C197.6 665.6 101.6 567 101.6 446z m232 239.9c29.6-1 58.3-7.2 85.4-18.7 28.6-12.1 54.2-29.4 76.3-51.4 12.6-12.6 23.7-26.5 33.1-41.4 8.2 4.5 16.6 8.6 25.3 12.3 30.8 13 63.3 20.1 96.9 21.2V943h-317V685.9z" fill="#9A2D2F" p-id="16239"></path><path d="M176.8 278.6c-46.1 41-75.2 100.8-75.2 167.4 0 27.7 5.1 54.3 14.3 78.8 51.3-47.1 9.1-127.9 37.7-172.8 31.1-48.7 106.3-27.7 132-31.8s73.2-31.2 73-79.7c0-6.1-0.5-11.5-1.3-16.3-10.4-1.5-20.9-2.2-31.7-2.2-57.1 0-109.3 21.4-148.8 56.6z" fill="#FFFFFF" p-id="16240"></path></svg>